<svg width="192" height="33" viewBox="0 0 192 33" fill="none" xmlns="http://www.w3.org/2000/svg">
<path d="M187.431 19.7169H191.97C191.879 21.2047 191.469 22.5254 190.74 23.6792C190.022 24.8329 189.015 25.7337 187.719 26.3814C186.434 27.0291 184.885 27.353 183.074 27.353C181.657 27.353 180.387 27.1101 179.263 26.6243C178.14 26.1284 177.178 25.4199 176.379 24.499C175.589 23.578 174.987 22.4647 174.572 21.1591C174.157 19.8536 173.95 18.3911 173.95 16.7718V15.2385C173.95 13.6192 174.162 12.1568 174.587 10.8512C175.023 9.5355 175.64 8.41716 176.44 7.49617C177.249 6.57519 178.216 5.86674 179.339 5.37082C180.463 4.87491 181.718 4.62695 183.104 4.62695C184.946 4.62695 186.5 4.96094 187.765 5.6289C189.04 6.29687 190.027 7.21785 190.725 8.39186C191.433 9.56586 191.858 10.9018 192 12.3997H187.446C187.395 11.509 187.218 10.755 186.915 10.1377C186.611 9.51019 186.15 9.03958 185.533 8.72584C184.926 8.40198 184.116 8.24005 183.104 8.24005C182.345 8.24005 181.682 8.38173 181.115 8.66511C180.549 8.94849 180.073 9.37862 179.688 9.9555C179.304 10.5324 179.015 11.2611 178.823 12.1416C178.641 13.012 178.55 14.0341 178.55 15.2082V16.7718C178.55 17.9154 178.636 18.9225 178.808 19.7928C178.98 20.6531 179.243 21.3818 179.597 21.9789C179.962 22.5659 180.427 23.0112 180.994 23.3148C181.571 23.6083 182.264 23.7551 183.074 23.7551C184.025 23.7551 184.809 23.6033 185.427 23.2997C186.044 22.996 186.515 22.5457 186.839 21.9485C187.173 21.3514 187.37 20.6075 187.431 19.7169Z" fill="white"/>
<path d="M173.008 23.4972V27.0495H161.881V23.4972H173.008ZM163.353 4.94592V27.0495H158.799V4.94592H163.353Z" fill="white"/>
<path d="M147.368 19.1706H141.735V15.6182H147.368C148.238 15.6182 148.946 15.4765 149.493 15.1931C150.039 14.8996 150.439 14.4948 150.692 13.9787C150.945 13.4625 151.072 12.8806 151.072 12.2328C151.072 11.575 150.945 10.9627 150.692 10.3959C150.439 9.82916 150.039 9.37373 149.493 9.02963C148.946 8.68552 148.238 8.51347 147.368 8.51347H143.314V27.0495H138.76V4.94592H147.368C149.098 4.94592 150.581 5.25966 151.816 5.88715C153.06 6.50451 154.012 7.35971 154.67 8.45275C155.327 9.54578 155.656 10.7957 155.656 12.2025C155.656 13.6295 155.327 14.8642 154.67 15.9066C154.012 16.9491 153.06 17.7537 151.816 18.3204C150.581 18.8872 149.098 19.1706 147.368 19.1706Z" fill="white"/>
<path d="M129.257 27.3532C127.982 27.3532 126.838 27.1508 125.826 26.746C124.814 26.3311 123.954 25.7592 123.245 25.0305C122.547 24.3019 122.01 23.4568 121.636 22.4953C121.262 21.5237 121.074 20.4914 121.074 19.3984V18.7911C121.074 17.5463 121.251 16.4077 121.606 15.3754C121.96 14.3431 122.466 13.4474 123.124 12.6883C123.792 11.9293 124.601 11.3474 125.553 10.9425C126.504 10.5276 127.577 10.3201 128.771 10.3201C129.935 10.3201 130.967 10.5124 131.868 10.897C132.769 11.2816 133.523 11.8281 134.13 12.5365C134.747 13.245 135.213 14.0951 135.527 15.087C135.84 16.0687 135.997 17.1617 135.997 18.3661V20.1878H122.942V17.273H131.701V16.939C131.701 16.3318 131.59 15.7903 131.367 15.3147C131.155 14.8289 130.831 14.4443 130.395 14.1609C129.96 13.8775 129.404 13.7358 128.726 13.7358C128.149 13.7358 127.653 13.8623 127.238 14.1154C126.823 14.3684 126.484 14.7226 126.221 15.178C125.968 15.6335 125.775 16.1699 125.644 16.7872C125.522 17.3945 125.462 18.0624 125.462 18.7911V19.3984C125.462 20.0562 125.553 20.6635 125.735 21.2201C125.927 21.7767 126.195 22.2575 126.539 22.6623C126.894 23.0671 127.319 23.3809 127.815 23.6035C128.321 23.8262 128.893 23.9375 129.53 23.9375C130.32 23.9375 131.053 23.7857 131.731 23.4821C132.42 23.1683 133.012 22.6977 133.508 22.0702L135.633 24.3778C135.289 24.8737 134.818 25.3493 134.221 25.8048C133.634 26.2602 132.926 26.6347 132.096 26.9282C131.266 27.2116 130.32 27.3532 129.257 27.3532Z" fill="white"/>
<path d="M114.986 14.2064V27.0496H110.614V10.6237H114.728L114.986 14.2064ZM119.935 10.5175L119.859 14.5708C119.647 14.5404 119.389 14.5151 119.085 14.4949C118.792 14.4645 118.523 14.4493 118.281 14.4493C117.663 14.4493 117.127 14.5303 116.671 14.6922C116.226 14.8441 115.852 15.0718 115.548 15.3754C115.254 15.679 115.032 16.0484 114.88 16.4836C114.738 16.9188 114.657 17.4147 114.637 17.9714L113.757 17.6981C113.757 16.6354 113.863 15.6588 114.075 14.7681C114.288 13.8674 114.597 13.0831 115.001 12.4151C115.416 11.7471 115.922 11.231 116.52 10.8666C117.117 10.5023 117.8 10.3201 118.569 10.3201C118.812 10.3201 119.06 10.3403 119.313 10.3808C119.566 10.4112 119.773 10.4567 119.935 10.5175Z" fill="white"/>
<path d="M92.3665 19.0037V18.6849C92.3665 17.4805 92.5386 16.3723 92.8827 15.3602C93.2268 14.338 93.7278 13.4525 94.3856 12.7035C95.0434 11.9546 95.8531 11.3727 96.8146 10.9577C97.776 10.5326 98.8792 10.3201 100.124 10.3201C101.369 10.3201 102.477 10.5326 103.449 10.9577C104.42 11.3727 105.235 11.9546 105.893 12.7035C106.561 13.4525 107.067 14.338 107.411 15.3602C107.755 16.3723 107.927 17.4805 107.927 18.6849V19.0037C107.927 20.1979 107.755 21.3061 107.411 22.3283C107.067 23.3404 106.561 24.2259 105.893 24.985C105.235 25.7339 104.425 26.3159 103.464 26.7308C102.502 27.1458 101.399 27.3532 100.154 27.3532C98.9096 27.3532 97.8013 27.1458 96.8297 26.7308C95.8683 26.3159 95.0536 25.7339 94.3856 24.985C93.7278 24.2259 93.2268 23.3404 92.8827 22.3283C92.5386 21.3061 92.3665 20.1979 92.3665 19.0037ZM96.7387 18.6849V19.0037C96.7387 19.6919 96.7994 20.3345 96.9208 20.9317C97.0423 21.5288 97.2346 22.0551 97.4977 22.5105C97.771 22.9558 98.1252 23.305 98.5604 23.558C98.9956 23.811 99.5269 23.9375 100.154 23.9375C100.762 23.9375 101.283 23.811 101.718 23.558C102.153 23.305 102.502 22.9558 102.766 22.5105C103.029 22.0551 103.221 21.5288 103.342 20.9317C103.474 20.3345 103.54 19.6919 103.54 19.0037V18.6849C103.54 18.0169 103.474 17.3894 103.342 16.8024C103.221 16.2053 103.024 15.679 102.75 15.2236C102.487 14.758 102.138 14.3937 101.703 14.1305C101.268 13.8674 100.741 13.7358 100.124 13.7358C99.5067 13.7358 98.9804 13.8674 98.5452 14.1305C98.1201 14.3937 97.771 14.758 97.4977 15.2236C97.2346 15.679 97.0423 16.2053 96.9208 16.8024C96.7994 17.3894 96.7387 18.0169 96.7387 18.6849Z" fill="white"/>
<path d="M83.6378 23.9375C84.1742 23.9375 84.6498 23.8363 85.0648 23.6339C85.4797 23.4214 85.8036 23.1279 86.0364 22.7534C86.2793 22.3688 86.4058 21.9184 86.4159 21.4023H90.53C90.5198 22.556 90.2112 23.5833 89.6039 24.484C88.9967 25.3746 88.182 26.078 87.1598 26.5942C86.1376 27.1002 84.9939 27.3532 83.7289 27.3532C82.4536 27.3532 81.3404 27.1407 80.389 26.7156C79.4478 26.2906 78.6634 25.7036 78.036 24.9546C77.4085 24.1956 76.9379 23.3151 76.6241 22.3131C76.3104 21.3011 76.1535 20.2181 76.1535 19.0644V18.6241C76.1535 17.4603 76.3104 16.3773 76.6241 15.3754C76.9379 14.3633 77.4085 13.4828 78.036 12.7339C78.6634 11.9748 79.4478 11.3828 80.389 10.9577C81.3302 10.5326 82.4334 10.3201 83.6985 10.3201C85.0445 10.3201 86.2236 10.5782 87.2357 11.0943C88.2579 11.6105 89.0574 12.3493 89.6343 13.3108C90.2213 14.2621 90.5198 15.3906 90.53 16.6961H86.4159C86.4058 16.1496 86.2894 15.6537 86.0667 15.2084C85.8542 14.7631 85.5405 14.4089 85.1255 14.1457C84.7207 13.8725 84.2197 13.7358 83.6226 13.7358C82.985 13.7358 82.4638 13.8725 82.0589 14.1457C81.6541 14.4089 81.3404 14.7732 81.1177 15.2388C80.8951 15.6942 80.7382 16.2154 80.6471 16.8024C80.5661 17.3793 80.5256 17.9865 80.5256 18.6241V19.0644C80.5256 19.702 80.5661 20.3143 80.6471 20.9013C80.7281 21.4883 80.8799 22.0095 81.1025 22.4649C81.3353 22.9204 81.6541 23.2797 82.0589 23.5428C82.4638 23.8059 82.99 23.9375 83.6378 23.9375Z" fill="white"/>
<path d="M73.2389 3.73108V27.0492H68.8516V3.73108H73.2389Z" fill="white"/>
<path d="M66.2402 23.4972V27.0495H54.4749V23.4972H66.2402ZM55.9626 4.94592V27.0495H51.4083V4.94592H55.9626ZM64.7069 13.9483V17.4096H54.4749V13.9483H64.7069ZM66.225 4.94592V8.51347H54.4749V4.94592H66.225Z" fill="white"/>
<path fill-rule="evenodd" clip-rule="evenodd" d="M14.6129 16.7888L14.6129 3.41977C14.6129 1.53096 16.144 -0.000223227 18.0328 -0.000223309L34.2001 -0.000224016C36.0889 -0.000224099 37.62 1.53096 37.62 3.41976L37.6201 16.7888C37.6201 18.6776 36.0889 20.2088 34.2001 20.2088L18.0328 20.2088C16.144 20.2088 14.6129 18.6776 14.6129 16.7888ZM17.1001 16.7888C17.1001 17.3039 17.5177 17.7215 18.0328 17.7215L34.2001 17.7215C34.7152 17.7215 35.1328 17.3039 35.1328 16.7888L35.1328 3.41976C35.1328 2.90464 34.7152 2.48704 34.2001 2.48704L18.0328 2.48704C17.5177 2.48704 17.1001 2.90464 17.1001 3.41977L17.1001 16.7888Z" fill="white"/>
<path fill-rule="evenodd" clip-rule="evenodd" d="M-1.49492e-07 28.9146L-7.33872e-07 15.5455C-8.16435e-07 13.6567 1.53118 12.1255 3.41999 12.1255L19.5872 12.1255C21.476 12.1255 23.0072 13.6567 23.0072 15.5455L23.0072 28.9146C23.0072 30.8034 21.476 32.3345 19.5872 32.3345L3.41999 32.3345C1.53118 32.3345 -6.69301e-08 30.8034 -1.49492e-07 28.9146ZM2.48726 28.9146C2.48726 29.4297 2.90486 29.8473 3.41999 29.8473L19.5872 29.8473C20.1023 29.8473 20.5199 29.4297 20.5199 28.9146L20.5199 15.5455C20.5199 15.0304 20.1023 14.6128 19.5872 14.6128L3.41999 14.6128C2.90486 14.6128 2.48726 15.0304 2.48726 15.5455L2.48726 28.9146Z" fill="white"/>
<path fill-rule="evenodd" clip-rule="evenodd" d="M24.8727 28.9146L24.8727 25.4946C24.8727 23.6058 26.4039 22.0746 28.2927 22.0746L34.2 22.0746C36.0888 22.0746 37.62 23.6058 37.62 25.4946L37.62 28.9146C37.62 30.8034 36.0888 32.3345 34.2 32.3345L28.2927 32.3345C26.4039 32.3345 24.8727 30.8034 24.8727 28.9146ZM27.36 28.9146C27.36 29.4297 27.7776 29.8473 28.2927 29.8473L34.2 29.8473C34.7151 29.8473 35.1327 29.4297 35.1327 28.9146L35.1327 25.4946C35.1327 24.9794 34.7151 24.5618 34.2 24.5618L28.2927 24.5618C27.7776 24.5618 27.36 24.9794 27.36 25.4946L27.36 28.9146Z" fill="#63D23A"/>
</svg>
